<svg width="22" height="19" viewBox="0 0 22 19" fill="none" xmlns="http://www.w3.org/2000/svg">
<path d="M15.9824 7.77006L15.561 17.785L13.7049 18.8766L11.7811 10.241L6.80679 13.1665L6.86117 16.7972L5.4691 17.616L3.99638 12.9881L0.667557 9.4519L2.05963 8.63318L5.2072 10.4447L10.1816 7.51908L3.56834 1.64142L5.42444 0.549792L14.3819 5.04872L19.437 2.07566C19.8062 1.85852 20.2446 1.79363 20.6557 1.89526C21.0669 1.9969 21.4171 2.25673 21.6293 2.61761C21.8416 2.97848 21.8985 3.41083 21.7875 3.81955C21.6765 4.22826 21.4067 4.57987 21.0375 4.797L15.9824 7.77006Z" fill="#EC9E28"/>
</svg>
