<svg width="30" height="24" viewBox="0 0 30 24" fill="none" xmlns="http://www.w3.org/2000/svg">
<path d="M0.699951 22.6364C0.699951 22.9185 0.807566 23.189 0.999121 23.3885C1.19068 23.588 1.45048 23.7 1.72138 23.7H28.2785C28.5494 23.7 28.8092 23.588 29.0008 23.3885C29.1923 23.189 29.3 22.9185 29.3 22.6364V9.73982H0.699951V22.6364ZM4.91334 13.4625C4.91334 13.3215 4.96715 13.1862 5.06293 13.0865C5.15871 12.9868 5.28861 12.9307 5.42406 12.9307H11.2973C11.4327 12.9307 11.5626 12.9868 11.6584 13.0865C11.7542 13.1862 11.808 13.3215 11.808 13.4625V17.7171C11.808 17.8581 11.7542 17.9934 11.6584 18.0931C11.5626 18.1929 11.4327 18.2489 11.2973 18.2489H5.42406C5.28861 18.2489 5.15871 18.1929 5.06293 18.0931C4.96715 17.9934 4.91334 17.8581 4.91334 17.7171V13.4625ZM28.2785 0.300049H1.72138C1.45048 0.300049 1.19068 0.41211 0.999121 0.611581C0.807566 0.811051 0.699951 1.08159 0.699951 1.36369V5.75118H29.3V1.36369C29.3 1.08159 29.1923 0.811051 29.0008 0.611581C28.8092 0.41211 28.5494 0.300049 28.2785 0.300049Z" fill="white"/>
</svg>
