<svg width="27" height="26" viewBox="0 0 27 26" fill="none" xmlns="http://www.w3.org/2000/svg">
<path d="M12.644 0C11.686 0.892607 10.9177 1.96901 10.3848 3.165C9.8519 4.361 9.56536 5.65207 9.54226 6.96121C9.51916 8.27034 9.75998 9.57072 10.2504 10.7848C10.7407 11.9988 11.4706 13.1017 12.3965 14.0275C13.3223 14.9533 14.4251 15.6832 15.6392 16.1736C16.8532 16.664 18.1536 16.9048 19.4627 16.8817C20.7719 16.8586 22.063 16.572 23.2589 16.0392C24.4549 15.5063 25.5313 14.7379 26.424 13.78C26.2204 17.0822 24.765 20.1824 22.3544 22.4485C19.9439 24.7146 16.7597 25.9759 13.4513 25.9753C6.27005 25.9753 0.449951 20.1552 0.449951 12.9753C0.449951 6.0658 5.83975 0.416 12.644 0Z" fill="white"/>
</svg>
