<svg width="27" height="27" viewBox="0 0 27 27" fill="none" xmlns="http://www.w3.org/2000/svg">
<path d="M22.49 19.97C23.01 19.06 23.4 18.02 23.4 16.85C23.4 13.6 20.8 11 17.55 11C14.3 11 11.7 13.6 11.7 16.85C11.7 20.1 14.3 22.7 17.55 22.7C18.72 22.7 19.76 22.31 20.67 21.79L24.83 25.95L26.65 24.13L22.49 19.97ZM17.55 20.1C15.73 20.1 14.3 18.67 14.3 16.85C14.3 15.03 15.73 13.6 17.55 13.6C19.37 13.6 20.8 15.03 20.8 16.85C20.8 18.67 19.37 20.1 17.55 20.1ZM13 24V26.6C5.824 26.6 0 20.776 0 13.6C0 6.42398 5.824 0.599976 13 0.599976C19.292 0.599976 24.531 5.07198 25.74 11H23.049C22.6435 9.42936 21.8763 7.97537 20.8086 6.75419C19.7409 5.53302 18.4024 4.57852 16.9 3.96698V4.49998C16.9 5.92998 15.73 7.09998 14.3 7.09998H11.7V9.69998C11.7 10.415 11.115 11 10.4 11H7.8V13.6H10.4V17.5H9.1L2.873 11.273C2.704 12.027 2.6 12.794 2.6 13.6C2.6 19.333 7.267 24 13 24Z" fill="white"/>
</svg>
